<svg width="400" height="150" viewBox="0 0 400 150" xmlns="http://www.w3.org/2000/svg">
  <!-- Règle -->
  <rect x="20" y="80" width="360" height="40" fill="#fef08a" stroke="#ca8a04" stroke-width="2"/>
  
  <!-- Graduations -->
  <line x1="20" y1="80" x2="20" y2="100" stroke="#ca8a04" stroke-width="2"/>
  <text x="18" y="115" font-family="Arial" font-size="10" fill="#ca8a04">0</text>
  
  <line x1="56" y1="80" x2="56" y2="90" stroke="#ca8a04" stroke-width="1"/>
  <line x1="92" y1="80" x2="92" y2="90" stroke="#ca8a04" stroke-width="1"/>
  <line x1="128" y1="80" x2="128" y2="90" stroke="#ca8a04" stroke-width="1"/>
  <line x1="164" y1="80" x2="164" y2="90" stroke="#ca8a04" stroke-width="1"/>
  
  <line x1="200" y1="80" x2="200" y2="100" stroke="#ca8a04" stroke-width="2"/>
  <text x="195" y="115" font-family="Arial" font-size="10" fill="#ca8a04">5</text>
  
  <line x1="380" y1="80" x2="380" y2="100" stroke="#ca8a04" stroke-width="2"/>
  <text x="372" y="115" font-family="Arial" font-size="10" fill="#ca8a04">10</text>

  <!-- Objet à mesurer (un crayon) -->
  <rect x="20" y="40" width="252" height="15" fill="#fb923c" stroke="#c2410c" stroke-width="1"/>
  <polygon points="272,40 290,47.5 272,55" fill="#fde68a" stroke="#c2410c" stroke-width="1"/>
  <path d="M 285 45 L 290 47.5 L 285 50 Z" fill="#1e293b"/>
  
  <text x="20" y="30" font-family="Arial" font-size="12" fill="#1e293b">On aligne le début sur le 0 !</text>
  <text x="272" y="30" font-family="Arial" font-size="12" fill="#1e293b" font-weight="bold">7 cm</text>
</svg>
